<svg xmlns="http://www.w3.org/2000/svg" viewBox="0 0 90 84" width="16" height="16">
  <rect width="90" height="84" fill="#ffffff"/>
  <path fill="#000000" fill-rule="evenodd" d="M 6 6 L 6 10 L 8 10 L 10 12 L 10 13 L 11 14 L 11 67 L 8 70 L 7 70 L 6 71 L 6 74 L 31 74 L 32 73 L 32 71 L 31 70 L 29 70 L 26 67 L 26 51 L 32 45 L 33 45 L 36 48 L 36 49 L 37 50 L 37 51 L 39 53 L 39 54 L 41 56 L 41 57 L 42 58 L 42 59 L 45 62 L 45 63 L 47 65 L 47 66 L 50 69 L 50 70 L 53 73 L 54 73 L 57 76 L 58 76 L 59 77 L 60 77 L 61 78 L 62 78 L 63 79 L 64 79 L 65 80 L 67 80 L 68 81 L 71 81 L 72 82 L 77 82 L 78 81 L 82 81 L 83 80 L 84 80 L 85 79 L 86 79 L 86 78 L 81 78 L 80 77 L 78 77 L 77 76 L 76 76 L 75 75 L 74 75 L 73 74 L 72 74 L 65 67 L 65 66 L 63 64 L 63 63 L 61 61 L 61 60 L 59 58 L 59 57 L 57 55 L 57 54 L 56 53 L 56 52 L 54 50 L 54 49 L 52 47 L 52 46 L 50 44 L 50 43 L 49 42 L 49 41 L 47 39 L 47 38 L 45 36 L 45 35 L 43 33 L 63 13 L 64 13 L 66 11 L 67 11 L 68 10 L 70 10 L 71 9 L 71 6 L 47 6 L 47 10 L 49 10 L 50 11 L 50 15 L 27 38 L 26 37 L 26 13 L 29 10 L 31 10 L 32 9 L 32 7 L 31 6 Z "/>
</svg>